<svg width="107" height="107" viewBox="0 0 107 107" fill="none" xmlns="http://www.w3.org/2000/svg">
<g filter="url(#filter0_d_51_4252)">
<circle cx="53.5" cy="51.5" r="51" fill="url(#paint0_linear_51_4252)" stroke="#C266D7"/>
<path d="M56.1429 41.3125C56.1429 40.1371 55.1853 39.1875 54 39.1875C52.8147 39.1875 51.8571 40.1371 51.8571 41.3125V50.875H42.2143C41.029 50.875 40.0714 51.8246 40.0714 53C40.0714 54.1754 41.029 55.125 42.2143 55.125H51.8571V64.6875C51.8571 65.8629 52.8147 66.8125 54 66.8125C55.1853 66.8125 56.1429 65.8629 56.1429 64.6875V55.125H65.7857C66.971 55.125 67.9286 54.1754 67.9286 53C67.9286 51.8246 66.971 50.875 65.7857 50.875H56.1429V41.3125Z" fill="white"/>
</g>
<defs>
<filter id="filter0_d_51_4252" x="0" y="0" width="107" height="107" filterUnits="userSpaceOnUse" color-interpolation-filters="sRGB">
<feFlood flood-opacity="0" result="BackgroundImageFix"/>
<feColorMatrix in="SourceAlpha" type="matrix" values="0 0 0 0 0 0 0 0 0 0 0 0 0 0 0 0 0 0 127 0" result="hardAlpha"/>
<feOffset dy="2"/>
<feGaussianBlur stdDeviation="1"/>
<feComposite in2="hardAlpha" operator="out"/>
<feColorMatrix type="matrix" values="0 0 0 0 0 0 0 0 0 0 0 0 0 0 0 0 0 0 0.25 0"/>
<feBlend mode="normal" in2="BackgroundImageFix" result="effect1_dropShadow_51_4252"/>
<feBlend mode="normal" in="SourceGraphic" in2="effect1_dropShadow_51_4252" result="shape"/>
</filter>
<linearGradient id="paint0_linear_51_4252" x1="105" y1="43.577" x2="1.99655" y2="43.4346" gradientUnits="userSpaceOnUse">
<stop stop-color="#D1589E"/>
<stop offset="1" stop-color="#BF68E1"/>
</linearGradient>
</defs>
</svg>
