<svg width="32" height="29" viewBox="0 0 30 27" fill="none" xmlns="http://www.w3.org/2000/svg">
<path d="M28.382 4.87554L28.3822 4.8756C29.2165 5.14985 29.75 5.88272 29.75 6.7464V21.3645C29.75 24.0822 27.5091 26.3 24.75 26.3H5.25C2.49017 26.3 0.25 24.0822 0.25 21.3645V6.74714C0.25 5.88264 0.783558 5.14991 1.61765 4.8764L1.61771 4.87638C2.45408 4.60189 3.32704 4.8728 3.85291 5.56756L3.85294 5.56759L8.26144 11.3895L8.51532 11.7248L8.68856 11.3415L13.1736 1.42011L13.1736 1.42004C13.4994 0.698771 14.197 0.25 15 0.25C15.8031 0.25 16.5006 0.698122 16.8264 1.41997L16.8264 1.4201L21.3122 11.3438L21.4855 11.7271L21.7394 11.3916L26.1471 5.56682C26.1471 5.56681 26.1471 5.5668 26.1471 5.56679C26.6731 4.87192 27.5475 4.60056 28.382 4.87554Z" stroke="url(#paint0_linear_96_6870)" stroke-width="0.5"/>
<defs>
<linearGradient id="paint0_linear_96_6870" x1="30" y1="11.2327" x2="-0.000988703" y2="11.1859" gradientUnits="userSpaceOnUse">
<stop stop-color="#D1589E"/>
<stop offset="1" stop-color="#BF68E1"/>
</linearGradient>
</defs>
</svg>
