<svg width="36" height="29" viewBox="0 0 36 29" fill="none" xmlns="http://www.w3.org/2000/svg">
<path d="M19.6768 3.17647L19.7454 3.31641H19.8889L22.8106 3.7383C23.1323 3.79206 23.2685 4.19553 23.0328 4.43506L20.8972 6.50628L20.8026 6.59807L20.8248 6.72802L21.3306 9.67626C21.3307 9.67669 21.3308 9.67711 21.3308 9.67753C21.3822 10.0043 21.0452 10.2539 20.7468 10.1054L18.1278 8.72456L18.0107 8.66278L17.8938 8.72504L15.2584 10.1282C14.9639 10.2744 14.6272 10.0306 14.675 9.69872L15.1808 6.75067L15.2029 6.62158L15.1094 6.52989L12.9732 4.43547C12.7307 4.18969 12.8741 3.78754 13.1936 3.73851C13.1938 3.73847 13.1941 3.73843 13.1943 3.73839L16.1345 3.31384L16.2651 3.29498L16.3232 3.17647L17.6502 0.470173C17.6503 0.469985 17.6504 0.469797 17.6504 0.46961C17.8004 0.168712 18.2174 0.186571 18.3472 0.464705L18.3472 0.464724L18.3493 0.46905L19.6768 3.17647ZM12.85 16.3147C12.85 15.4486 13.5441 14.7522 14.4 14.7522H21.6C22.4559 14.7522 23.15 15.4486 23.15 16.3147V27.1897C23.15 28.0558 22.4559 28.7522 21.6 28.7522H14.4C13.5441 28.7522 12.85 28.0558 12.85 27.1897V16.3147ZM0.25 19.9397C0.25 19.0735 0.944075 18.3772 1.8 18.3772H9C9.85592 18.3772 10.55 19.0735 10.55 19.9397V27.1897C10.55 28.0558 9.85592 28.7522 9 28.7522H1.8C0.944075 28.7522 0.25 28.0558 0.25 27.1897V19.9397ZM25.45 27.1897V23.5647C25.45 22.6986 26.1441 22.0022 27 22.0022H34.2C35.0559 22.0022 35.75 22.6985 35.75 23.5647V27.1897C35.75 28.0558 35.0559 28.7522 34.2 28.7522H27C26.1441 28.7522 25.45 28.0558 25.45 27.1897Z" stroke="url(#paint0_linear_39_847)" stroke-width="0.5"/>
<defs>
<linearGradient id="paint0_linear_39_847" x1="36" y1="12.2702" x2="-0.00116829" y2="12.2084" gradientUnits="userSpaceOnUse">
<stop stop-color="#D1589E"/>
<stop offset="1" stop-color="#BF68E1"/>
</linearGradient>
</defs>
</svg>
