<svg width="26" height="29" viewBox="0 0 26 40" fill="none" xmlns="http://www.w3.org/2000/svg">
<mask id="path-1-inside-1_97_8018" fill="white">
<path d="M12.0529 1.28532C12.1133 0.820438 12.5853 0.460598 13.0551 0.523518C13.5507 0.561998 13.9403 1.0612 13.8573 1.54584C13.8185 1.85888 13.5912 2.11108 13.3155 2.25096C13.9555 3.14016 14.5839 4.03768 15.2187 4.93052C15.6072 4.66428 15.9909 4.3918 16.38 4.12608C16.2051 3.9316 16.0839 3.67888 16.1122 3.41316C16.1353 2.94568 16.5763 2.55672 17.0467 2.57804C17.5397 2.58116 17.9691 3.03668 17.9287 3.52496C17.9203 3.91444 17.62 4.241 17.2541 4.35176C17.6872 5.02204 18.0978 5.70688 18.5246 6.38184C19.279 6.19204 20.0324 5.99756 20.7873 5.80828C20.7585 5.5618 20.7805 5.29764 20.9364 5.09328C21.1884 4.71576 21.7444 4.58784 22.1366 4.82288C22.5734 5.05324 22.734 5.66528 22.4595 6.07504C22.23 6.46192 21.7092 6.59452 21.3008 6.42448C20.9112 7.50088 20.5206 8.57676 20.1279 9.6516C20.4366 9.7504 20.7128 9.98128 20.802 10.2985C20.8797 10.5273 20.832 10.7717 20.7464 10.9906C21.3223 11.6073 21.8604 12.2646 22.2825 12.9957C22.8023 13.8714 23.1897 14.824 23.4302 15.8115C23.5908 16.488 23.6675 17.1817 23.7032 17.8749C23.7058 20.284 23.6995 22.6937 23.7063 25.1029C23.6811 26.2167 24.0576 27.3451 24.7957 28.1922C25.1406 28.5442 25.3916 28.9764 25.6058 29.4158C26.1035 30.5015 26.1145 31.8005 25.6415 32.8961C25.0146 34.375 23.5053 35.4675 21.8778 35.5362C21.5271 35.5554 21.1727 35.557 20.8257 35.4951C20.6566 35.4764 20.4781 35.4046 20.3133 35.4805C20.1437 35.5549 20.0182 35.6968 19.8744 35.8086C19.395 36.1851 18.8343 36.4571 18.2437 36.6136C17.8164 36.7207 17.3733 36.7306 16.9354 36.7462C16.7165 36.753 16.5474 36.9552 16.5595 37.1669C16.5884 37.3946 16.7795 37.5491 16.9517 37.6796C17.5192 38.1096 18.2222 38.354 18.9341 38.392C19.7048 38.3977 20.4765 38.3889 21.2478 38.3956C21.4998 38.3936 21.6704 38.7076 21.5407 38.9198C21.4751 39.0467 21.3307 39.119 21.1884 39.1065C20.7516 39.107 20.3143 39.1049 19.877 39.106C19.2984 39.1008 18.7125 39.1366 18.1429 39.0155C17.2173 38.7992 16.3642 38.2745 15.7762 37.5324C15.1116 36.7207 14.7887 35.6594 14.8296 34.6204C14.8291 34.1166 14.8307 33.6122 14.8296 33.1083C14.826 32.9377 14.7981 32.7365 14.6417 32.6351C14.448 32.5087 14.2086 32.5696 13.9949 32.5872C13.2426 32.6756 12.4813 32.6507 11.7327 32.5472C11.613 32.5269 11.4854 32.515 11.3736 32.5711C11.1903 32.6559 11.1168 32.8691 11.1179 33.0573C11.1163 33.6475 11.1189 34.2377 11.1184 34.8279C11.0617 35.728 10.7499 36.6224 10.1708 37.325C9.58331 38.0665 8.73018 38.5906 7.80618 38.807C7.21871 38.9323 6.61496 38.8912 6.01856 38.898C5.57966 38.8948 5.14023 38.9032 4.70081 38.8959C4.50866 38.8969 4.34801 38.7092 4.36481 38.523C4.36796 38.3499 4.52598 38.184 4.70396 38.1871C5.47466 38.1814 6.24536 38.1897 7.01658 38.184C7.75316 38.144 8.48238 37.8829 9.05883 37.4222C9.13968 37.352 9.21843 37.2704 9.25256 37.1669C9.34023 36.9532 9.18588 36.6802 8.95121 36.6542C8.63726 36.6074 8.31701 36.6178 8.00516 36.5512C7.33946 36.4176 6.70894 36.1186 6.17554 35.7026C5.99704 35.5648 5.83848 35.3666 5.59856 35.3406C5.37018 35.3536 5.14758 35.4155 4.91973 35.4316C4.18263 35.4748 3.42191 35.4082 2.74361 35.102C1.77183 34.6854 0.94496 33.9221 0.49451 32.9694C0.0556099 32.1068 -0.0252402 31.0938 0.162185 30.1536C0.343835 29.3627 0.749135 28.6228 1.30563 28.03C1.96871 27.2448 2.32308 26.2261 2.34618 25.2074C2.35248 22.9542 2.34723 20.7011 2.34933 18.4479C2.32571 17.3076 2.46746 16.1578 2.81606 15.0684C3.27806 13.6176 4.06556 12.2698 5.11136 11.1554C4.93863 10.8918 4.86566 10.5522 4.99061 10.2543C5.09456 9.96932 5.35233 9.77432 5.63006 9.66876C5.20953 8.54712 4.81211 7.41664 4.39631 6.29292C3.99941 6.3028 3.58466 6.0792 3.45813 5.6918C3.28226 5.255 3.53321 4.72044 3.97369 4.55612C4.39211 4.37412 4.92341 4.57536 5.12133 4.98096C5.27411 5.24668 5.24261 5.57948 5.10453 5.84468C5.81171 6.022 6.51731 6.20452 7.22448 6.38132C7.66391 5.68036 8.09493 4.9742 8.53803 4.27584C8.17316 4.15052 7.87653 3.8146 7.87916 3.41992C7.85763 2.91136 8.34063 2.46104 8.85146 2.50628C9.34128 2.52656 9.74973 2.993 9.69986 3.47556C9.68306 3.72776 9.54341 3.95292 9.35493 4.11672C9.74816 4.3866 10.1382 4.66116 10.5304 4.93208C11.1756 4.0148 11.8251 3.10012 12.4761 2.187C12.181 1.99356 11.991 1.6384 12.0529 1.28532ZM12.8625 1.1574C12.6824 1.21044 12.6031 1.46108 12.7428 1.59628C12.8777 1.75384 13.1691 1.69872 13.2258 1.49592C13.2993 1.29104 13.0651 1.07368 12.8625 1.1574ZM11.046 5.2888C10.9457 5.42348 10.8601 5.59404 10.6853 5.64396C10.5561 5.70532 10.4259 5.62212 10.322 5.5514C9.89673 5.25032 9.46571 4.9586 9.04203 4.65596C8.59578 5.3564 8.16371 6.0662 7.72218 6.76976C7.65918 6.86024 7.59513 6.95696 7.49748 7.01416C7.39563 7.07292 7.27541 7.03808 7.16883 7.01364C6.49316 6.83736 5.81433 6.67096 5.13813 6.4952C5.28041 6.8696 5.41219 7.24764 5.55236 7.62308C7.12631 7.62308 8.69973 7.62204 10.2737 7.62308C10.4543 7.60852 10.6296 7.76296 10.6197 7.94496C10.6191 8.11968 10.4522 8.26476 10.2774 8.24604C8.77639 8.24604 7.27541 8.2476 5.77443 8.245C5.94453 8.70884 6.11989 9.17112 6.27739 9.63912C10.6753 9.64068 15.0732 9.64016 19.4712 9.63964C19.6287 9.168 19.804 8.7026 19.9783 8.2372C18.4737 8.23668 16.969 8.23928 15.4649 8.23616C15.2491 8.25124 15.0738 7.99592 15.1735 7.80404C15.2271 7.66728 15.3804 7.6028 15.5216 7.61372C17.0808 7.61632 18.6401 7.6106 20.1993 7.61684C20.3364 7.24348 20.4676 6.86804 20.6104 6.49676C19.8927 6.6746 19.1782 6.86492 18.46 7.0386C18.2589 7.0958 18.1188 6.91276 18.0243 6.76716C17.5854 6.06464 17.1501 5.35952 16.7107 4.65752C16.2881 4.94976 15.8655 5.242 15.4455 5.53788C15.3573 5.59768 15.2638 5.66372 15.153 5.66736C15.0039 5.64916 14.8795 5.55192 14.8013 5.42868C14.1618 4.51972 13.515 3.61596 12.8756 2.70648C12.264 3.56604 11.6544 4.42716 11.046 5.2888ZM8.65616 3.16408C8.50233 3.23844 8.45246 3.46412 8.58161 3.58424C8.71968 3.74544 9.01998 3.67888 9.06671 3.4688C9.13181 3.24728 8.85408 3.04188 8.65616 3.16408ZM16.9013 3.23168C16.7086 3.30396 16.6803 3.59672 16.8598 3.70072C17.0173 3.82032 17.2714 3.71372 17.2992 3.5208C17.3407 3.31384 17.0903 3.123 16.9013 3.23168ZM4.19156 5.14216C4.01253 5.21808 3.97368 5.4838 4.13538 5.59768C4.28448 5.73184 4.55643 5.63824 4.59003 5.4422C4.63728 5.23472 4.38266 5.03036 4.19156 5.14216ZM21.567 5.3564C21.3848 5.42556 21.3428 5.697 21.504 5.8114C21.6578 5.9492 21.9339 5.85248 21.9639 5.64916C22.0074 5.44116 21.7581 5.25032 21.567 5.3564ZM5.64214 10.3796C5.55709 10.4581 5.56443 10.5808 5.54658 10.6854C5.59698 10.6557 5.64739 10.6266 5.69831 10.597C5.80646 10.6973 5.91408 10.8143 6.06476 10.8486C6.25428 10.8939 6.45116 10.8814 6.64489 10.8871C10.9866 10.8871 15.3279 10.8876 19.6696 10.8866C19.8413 10.8783 20.0628 10.8944 20.1636 10.7249C20.297 10.5486 20.1479 10.2699 19.9326 10.2631C15.3289 10.2631 10.7247 10.2631 6.12093 10.2631C5.95976 10.2756 5.76184 10.248 5.64214 10.3796ZM19.3005 11.5101C16.2729 11.5101 13.2457 11.5101 10.2186 11.5101C8.73176 11.5163 7.24443 11.4981 5.75763 11.5194C5.18433 12.1018 4.71288 12.7737 4.29761 13.4731C3.47441 14.9384 3.06071 16.6186 3.06281 18.293C3.06176 20.2861 3.06281 22.2793 3.06228 24.2724C3.05756 24.704 3.08538 25.1362 3.05021 25.5672C2.98721 26.6317 2.55093 27.6634 1.86581 28.4813C1.34816 29.0154 0.99431 29.7038 0.855185 30.4308C0.587435 31.7599 1.16231 33.2222 2.27846 34.011C2.89638 34.478 3.67391 34.7109 4.44566 34.7322C4.63623 34.7426 4.84833 34.649 4.89979 34.453C5.01161 34.2294 4.79951 34.0167 4.84676 33.7916C4.90293 33.6387 5.05728 33.5045 5.23106 33.5321C5.39643 33.5326 5.50721 33.6813 5.56706 33.8186C6.04849 34.8903 7.10741 35.6708 8.27133 35.8612C8.85933 35.9756 9.47043 35.9137 10.0406 35.7416C10.2112 35.6812 10.2816 35.4977 10.3104 35.3354C10.3551 35.0822 10.4028 34.8269 10.3997 34.5695C10.3976 33.945 10.3981 33.3204 10.3997 32.6964C10.3965 32.5451 10.3929 32.3787 10.2957 32.2539C10.217 32.1478 10.0868 32.1031 9.96971 32.0532C8.75013 31.5488 7.65656 30.7438 6.82181 29.7293C5.74713 28.4111 5.08616 26.7487 5.04363 25.0488C5.03418 24.4092 5.06201 23.7686 5.03471 23.1284C5.04993 21.7926 5.03681 20.4556 5.04206 19.1198C5.03576 18.9508 5.14391 18.7963 5.28303 18.7079C5.40011 18.645 5.53923 18.685 5.66471 18.6986C6.71733 18.8717 7.80251 18.8577 8.84674 18.6346C10.038 18.3798 11.1725 17.8624 12.1359 17.1224C13.095 16.4043 13.871 15.4584 14.4249 14.4039C14.5125 14.2541 14.5545 14.0534 14.7246 13.9712C14.8811 13.899 15.0617 13.9593 15.204 14.0368C15.3541 14.1168 15.4014 14.2905 15.4754 14.4304C16.444 16.5213 18.3613 18.1552 20.5931 18.7932C20.7931 18.8478 21.0231 18.9991 21.011 19.2305C21.0099 21.049 21.0147 22.8674 21.0073 24.6853C21.0435 25.9994 20.7002 27.3108 20.076 28.4673C19.2186 30.0751 17.7786 31.3684 16.0791 32.0568C15.9274 32.1198 15.7536 32.1676 15.6502 32.3044C15.5494 32.4281 15.5505 32.5966 15.5478 32.7479C15.5499 33.4244 15.5494 34.1004 15.5478 34.777C15.5452 35.0219 15.5846 35.2652 15.6329 35.505C15.6639 35.6776 15.793 35.8497 15.9768 35.8762C16.3847 35.9298 16.7879 36.0333 17.2021 36.0265C17.7817 36.0026 18.3624 35.869 18.8769 35.5991C19.5746 35.2299 20.1647 34.6438 20.4855 33.9231C20.5448 33.7858 20.655 33.6371 20.8209 33.6361C21.0588 33.6007 21.2871 33.8664 21.1947 34.0926C21.1265 34.2752 21.0771 34.4852 21.2005 34.6579C21.3596 34.8934 21.6846 34.8378 21.9282 34.816C23.0401 34.712 24.1006 34.0906 24.6886 33.1442C25.0493 32.5961 25.2309 31.944 25.2635 31.294C25.2834 30.2977 24.8802 29.3014 24.1851 28.5838C23.595 27.8786 23.1918 27.0165 23.0496 26.1112C22.9776 25.64 22.9776 25.1622 22.9902 24.6874C22.9908 22.7634 22.9902 20.8394 22.9902 18.9159C23.0076 17.9388 22.9566 16.9534 22.7157 16.0018C22.3245 14.2962 21.4315 12.7102 20.1894 11.469C19.8959 11.522 19.5972 11.509 19.3005 11.5101ZM14.7525 15.4122C14.6107 15.473 14.5461 15.6238 14.4579 15.7392C13.4699 17.1297 12.0849 18.2488 10.4889 18.8842C9.16803 19.4474 7.69856 19.6086 6.27318 19.4983C6.13878 19.4994 5.99493 19.5306 5.89413 19.6236C5.78336 19.7386 5.76446 19.907 5.76078 20.0584C5.75921 21.6532 5.76394 23.2475 5.76866 24.8424C5.78179 25.7004 5.96921 26.5506 6.26058 27.3566C6.88533 28.9774 8.13693 30.3434 9.69513 31.1323C11.5683 32.0974 13.8699 32.1884 15.8177 31.384C17.5113 30.6986 18.9136 29.345 19.6528 27.6883C20.0586 26.7788 20.2592 25.7846 20.287 24.7935C20.2849 23.2668 20.2949 21.74 20.2923 20.2133C20.2875 19.996 20.318 19.7656 20.223 19.5618C20.1505 19.4162 19.9825 19.3668 19.8413 19.3127C17.966 18.6232 16.3296 17.306 15.2869 15.6134C15.1929 15.4231 14.952 15.3154 14.7525 15.4122Z"/>
</mask>
<path d="M12.0529 1.28532C12.1133 0.820438 12.5853 0.460598 13.0551 0.523518C13.5507 0.561998 13.9403 1.0612 13.8573 1.54584C13.8185 1.85888 13.5912 2.11108 13.3155 2.25096C13.9555 3.14016 14.5839 4.03768 15.2187 4.93052C15.6072 4.66428 15.9909 4.3918 16.38 4.12608C16.2051 3.9316 16.0839 3.67888 16.1122 3.41316C16.1353 2.94568 16.5763 2.55672 17.0467 2.57804C17.5397 2.58116 17.9691 3.03668 17.9287 3.52496C17.9203 3.91444 17.62 4.241 17.2541 4.35176C17.6872 5.02204 18.0978 5.70688 18.5246 6.38184C19.279 6.19204 20.0324 5.99756 20.7873 5.80828C20.7585 5.5618 20.7805 5.29764 20.9364 5.09328C21.1884 4.71576 21.7444 4.58784 22.1366 4.82288C22.5734 5.05324 22.734 5.66528 22.4595 6.07504C22.23 6.46192 21.7092 6.59452 21.3008 6.42448C20.9112 7.50088 20.5206 8.57676 20.1279 9.6516C20.4366 9.7504 20.7128 9.98128 20.802 10.2985C20.8797 10.5273 20.832 10.7717 20.7464 10.9906C21.3223 11.6073 21.8604 12.2646 22.2825 12.9957C22.8023 13.8714 23.1897 14.824 23.4302 15.8115C23.5908 16.488 23.6675 17.1817 23.7032 17.8749C23.7058 20.284 23.6995 22.6937 23.7063 25.1029C23.6811 26.2167 24.0576 27.3451 24.7957 28.1922C25.1406 28.5442 25.3916 28.9764 25.6058 29.4158C26.1035 30.5015 26.1145 31.8005 25.6415 32.8961C25.0146 34.375 23.5053 35.4675 21.8778 35.5362C21.5271 35.5554 21.1727 35.557 20.8257 35.4951C20.6566 35.4764 20.4781 35.4046 20.3133 35.4805C20.1437 35.5549 20.0182 35.6968 19.8744 35.8086C19.395 36.1851 18.8343 36.4571 18.2437 36.6136C17.8164 36.7207 17.3733 36.7306 16.9354 36.7462C16.7165 36.753 16.5474 36.9552 16.5595 37.1669C16.5884 37.3946 16.7795 37.5491 16.9517 37.6796C17.5192 38.1096 18.2222 38.354 18.9341 38.392C19.7048 38.3977 20.4765 38.3889 21.2478 38.3956C21.4998 38.3936 21.6704 38.7076 21.5407 38.9198C21.4751 39.0467 21.3307 39.119 21.1884 39.1065C20.7516 39.107 20.3143 39.1049 19.877 39.106C19.2984 39.1008 18.7125 39.1366 18.1429 39.0155C17.2173 38.7992 16.3642 38.2745 15.7762 37.5324C15.1116 36.7207 14.7887 35.6594 14.8296 34.6204C14.8291 34.1166 14.8307 33.6122 14.8296 33.1083C14.826 32.9377 14.7981 32.7365 14.6417 32.6351C14.448 32.5087 14.2086 32.5696 13.9949 32.5872C13.2426 32.6756 12.4813 32.6507 11.7327 32.5472C11.613 32.5269 11.4854 32.515 11.3736 32.5711C11.1903 32.6559 11.1168 32.8691 11.1179 33.0573C11.1163 33.6475 11.1189 34.2377 11.1184 34.8279C11.0617 35.728 10.7499 36.6224 10.1708 37.325C9.58331 38.0665 8.73018 38.5906 7.80618 38.807C7.21871 38.9323 6.61496 38.8912 6.01856 38.898C5.57966 38.8948 5.14023 38.9032 4.70081 38.8959C4.50866 38.8969 4.34801 38.7092 4.36481 38.523C4.36796 38.3499 4.52598 38.184 4.70396 38.1871C5.47466 38.1814 6.24536 38.1897 7.01658 38.184C7.75316 38.144 8.48238 37.8829 9.05883 37.4222C9.13968 37.352 9.21843 37.2704 9.25256 37.1669C9.34023 36.9532 9.18588 36.6802 8.95121 36.6542C8.63726 36.6074 8.31701 36.6178 8.00516 36.5512C7.33946 36.4176 6.70894 36.1186 6.17554 35.7026C5.99704 35.5648 5.83848 35.3666 5.59856 35.3406C5.37018 35.3536 5.14758 35.4155 4.91973 35.4316C4.18263 35.4748 3.42191 35.4082 2.74361 35.102C1.77183 34.6854 0.94496 33.9221 0.49451 32.9694C0.0556099 32.1068 -0.0252402 31.0938 0.162185 30.1536C0.343835 29.3627 0.749135 28.6228 1.30563 28.03C1.96871 27.2448 2.32308 26.2261 2.34618 25.2074C2.35248 22.9542 2.34723 20.7011 2.34933 18.4479C2.32571 17.3076 2.46746 16.1578 2.81606 15.0684C3.27806 13.6176 4.06556 12.2698 5.11136 11.1554C4.93863 10.8918 4.86566 10.5522 4.99061 10.2543C5.09456 9.96932 5.35233 9.77432 5.63006 9.66876C5.20953 8.54712 4.81211 7.41664 4.39631 6.29292C3.99941 6.3028 3.58466 6.0792 3.45813 5.6918C3.28226 5.255 3.53321 4.72044 3.97369 4.55612C4.39211 4.37412 4.92341 4.57536 5.12133 4.98096C5.27411 5.24668 5.24261 5.57948 5.10453 5.84468C5.81171 6.022 6.51731 6.20452 7.22448 6.38132C7.66391 5.68036 8.09493 4.9742 8.53803 4.27584C8.17316 4.15052 7.87653 3.8146 7.87916 3.41992C7.85763 2.91136 8.34063 2.46104 8.85146 2.50628C9.34128 2.52656 9.74973 2.993 9.69986 3.47556C9.68306 3.72776 9.54341 3.95292 9.35493 4.11672C9.74816 4.3866 10.1382 4.66116 10.5304 4.93208C11.1756 4.0148 11.8251 3.10012 12.4761 2.187C12.181 1.99356 11.991 1.6384 12.0529 1.28532ZM12.8625 1.1574C12.6824 1.21044 12.6031 1.46108 12.7428 1.59628C12.8777 1.75384 13.1691 1.69872 13.2258 1.49592C13.2993 1.29104 13.0651 1.07368 12.8625 1.1574ZM11.046 5.2888C10.9457 5.42348 10.8601 5.59404 10.6853 5.64396C10.5561 5.70532 10.4259 5.62212 10.322 5.5514C9.89673 5.25032 9.46571 4.9586 9.04203 4.65596C8.59578 5.3564 8.16371 6.0662 7.72218 6.76976C7.65918 6.86024 7.59513 6.95696 7.49748 7.01416C7.39563 7.07292 7.27541 7.03808 7.16883 7.01364C6.49316 6.83736 5.81433 6.67096 5.13813 6.4952C5.28041 6.8696 5.41219 7.24764 5.55236 7.62308C7.12631 7.62308 8.69973 7.62204 10.2737 7.62308C10.4543 7.60852 10.6296 7.76296 10.6197 7.94496C10.6191 8.11968 10.4522 8.26476 10.2774 8.24604C8.77639 8.24604 7.27541 8.2476 5.77443 8.245C5.94453 8.70884 6.11989 9.17112 6.27739 9.63912C10.6753 9.64068 15.0732 9.64016 19.4712 9.63964C19.6287 9.168 19.804 8.7026 19.9783 8.2372C18.4737 8.23668 16.969 8.23928 15.4649 8.23616C15.2491 8.25124 15.0738 7.99592 15.1735 7.80404C15.2271 7.66728 15.3804 7.6028 15.5216 7.61372C17.0808 7.61632 18.6401 7.6106 20.1993 7.61684C20.3364 7.24348 20.4676 6.86804 20.6104 6.49676C19.8927 6.6746 19.1782 6.86492 18.46 7.0386C18.2589 7.0958 18.1188 6.91276 18.0243 6.76716C17.5854 6.06464 17.1501 5.35952 16.7107 4.65752C16.2881 4.94976 15.8655 5.242 15.4455 5.53788C15.3573 5.59768 15.2638 5.66372 15.153 5.66736C15.0039 5.64916 14.8795 5.55192 14.8013 5.42868C14.1618 4.51972 13.515 3.61596 12.8756 2.70648C12.264 3.56604 11.6544 4.42716 11.046 5.2888ZM8.65616 3.16408C8.50233 3.23844 8.45246 3.46412 8.58161 3.58424C8.71968 3.74544 9.01998 3.67888 9.06671 3.4688C9.13181 3.24728 8.85408 3.04188 8.65616 3.16408ZM16.9013 3.23168C16.7086 3.30396 16.6803 3.59672 16.8598 3.70072C17.0173 3.82032 17.2714 3.71372 17.2992 3.5208C17.3407 3.31384 17.0903 3.123 16.9013 3.23168ZM4.19156 5.14216C4.01253 5.21808 3.97368 5.4838 4.13538 5.59768C4.28448 5.73184 4.55643 5.63824 4.59003 5.4422C4.63728 5.23472 4.38266 5.03036 4.19156 5.14216ZM21.567 5.3564C21.3848 5.42556 21.3428 5.697 21.504 5.8114C21.6578 5.9492 21.9339 5.85248 21.9639 5.64916C22.0074 5.44116 21.7581 5.25032 21.567 5.3564ZM5.64214 10.3796C5.55709 10.4581 5.56443 10.5808 5.54658 10.6854C5.59698 10.6557 5.64739 10.6266 5.69831 10.597C5.80646 10.6973 5.91408 10.8143 6.06476 10.8486C6.25428 10.8939 6.45116 10.8814 6.64489 10.8871C10.9866 10.8871 15.3279 10.8876 19.6696 10.8866C19.8413 10.8783 20.0628 10.8944 20.1636 10.7249C20.297 10.5486 20.1479 10.2699 19.9326 10.2631C15.3289 10.2631 10.7247 10.2631 6.12093 10.2631C5.95976 10.2756 5.76184 10.248 5.64214 10.3796ZM19.3005 11.5101C16.2729 11.5101 13.2457 11.5101 10.2186 11.5101C8.73176 11.5163 7.24443 11.4981 5.75763 11.5194C5.18433 12.1018 4.71288 12.7737 4.29761 13.4731C3.47441 14.9384 3.06071 16.6186 3.06281 18.293C3.06176 20.2861 3.06281 22.2793 3.06228 24.2724C3.05756 24.704 3.08538 25.1362 3.05021 25.5672C2.98721 26.6317 2.55093 27.6634 1.86581 28.4813C1.34816 29.0154 0.99431 29.7038 0.855185 30.4308C0.587435 31.7599 1.16231 33.2222 2.27846 34.011C2.89638 34.478 3.67391 34.7109 4.44566 34.7322C4.63623 34.7426 4.84833 34.649 4.89979 34.453C5.01161 34.2294 4.79951 34.0167 4.84676 33.7916C4.90293 33.6387 5.05728 33.5045 5.23106 33.5321C5.39643 33.5326 5.50721 33.6813 5.56706 33.8186C6.04849 34.8903 7.10741 35.6708 8.27133 35.8612C8.85933 35.9756 9.47043 35.9137 10.0406 35.7416C10.2112 35.6812 10.2816 35.4977 10.3104 35.3354C10.3551 35.0822 10.4028 34.8269 10.3997 34.5695C10.3976 33.945 10.3981 33.3204 10.3997 32.6964C10.3965 32.5451 10.3929 32.3787 10.2957 32.2539C10.217 32.1478 10.0868 32.1031 9.96971 32.0532C8.75013 31.5488 7.65656 30.7438 6.82181 29.7293C5.74713 28.4111 5.08616 26.7487 5.04363 25.0488C5.03418 24.4092 5.06201 23.7686 5.03471 23.1284C5.04993 21.7926 5.03681 20.4556 5.04206 19.1198C5.03576 18.9508 5.14391 18.7963 5.28303 18.7079C5.40011 18.645 5.53923 18.685 5.66471 18.6986C6.71733 18.8717 7.80251 18.8577 8.84674 18.6346C10.038 18.3798 11.1725 17.8624 12.1359 17.1224C13.095 16.4043 13.871 15.4584 14.4249 14.4039C14.5125 14.2541 14.5545 14.0534 14.7246 13.9712C14.8811 13.899 15.0617 13.9593 15.204 14.0368C15.3541 14.1168 15.4014 14.2905 15.4754 14.4304C16.444 16.5213 18.3613 18.1552 20.5931 18.7932C20.7931 18.8478 21.0231 18.9991 21.011 19.2305C21.0099 21.049 21.0147 22.8674 21.0073 24.6853C21.0435 25.9994 20.7002 27.3108 20.076 28.4673C19.2186 30.0751 17.7786 31.3684 16.0791 32.0568C15.9274 32.1198 15.7536 32.1676 15.6502 32.3044C15.5494 32.4281 15.5505 32.5966 15.5478 32.7479C15.5499 33.4244 15.5494 34.1004 15.5478 34.777C15.5452 35.0219 15.5846 35.2652 15.6329 35.505C15.6639 35.6776 15.793 35.8497 15.9768 35.8762C16.3847 35.9298 16.7879 36.0333 17.2021 36.0265C17.7817 36.0026 18.3624 35.869 18.8769 35.5991C19.5746 35.2299 20.1647 34.6438 20.4855 33.9231C20.5448 33.7858 20.655 33.6371 20.8209 33.6361C21.0588 33.6007 21.2871 33.8664 21.1947 34.0926C21.1265 34.2752 21.0771 34.4852 21.2005 34.6579C21.3596 34.8934 21.6846 34.8378 21.9282 34.816C23.0401 34.712 24.1006 34.0906 24.6886 33.1442C25.0493 32.5961 25.2309 31.944 25.2635 31.294C25.2834 30.2977 24.8802 29.3014 24.1851 28.5838C23.595 27.8786 23.1918 27.0165 23.0496 26.1112C22.9776 25.64 22.9776 25.1622 22.9902 24.6874C22.9908 22.7634 22.9902 20.8394 22.9902 18.9159C23.0076 17.9388 22.9566 16.9534 22.7157 16.0018C22.3245 14.2962 21.4315 12.7102 20.1894 11.469C19.8959 11.522 19.5972 11.509 19.3005 11.5101ZM14.7525 15.4122C14.6107 15.473 14.5461 15.6238 14.4579 15.7392C13.4699 17.1297 12.0849 18.2488 10.4889 18.8842C9.16803 19.4474 7.69856 19.6086 6.27318 19.4983C6.13878 19.4994 5.99493 19.5306 5.89413 19.6236C5.78336 19.7386 5.76446 19.907 5.76078 20.0584C5.75921 21.6532 5.76394 23.2475 5.76866 24.8424C5.78179 25.7004 5.96921 26.5506 6.26058 27.3566C6.88533 28.9774 8.13693 30.3434 9.69513 31.1323C11.5683 32.0974 13.8699 32.1884 15.8177 31.384C17.5113 30.6986 18.9136 29.345 19.6528 27.6883C20.0586 26.7788 20.2592 25.7846 20.287 24.7935C20.2849 23.2668 20.2949 21.74 20.2923 20.2133C20.2875 19.996 20.318 19.7656 20.223 19.5618C20.1505 19.4162 19.9825 19.3668 19.8413 19.3127C17.966 18.6232 16.3296 17.306 15.2869 15.6134C15.1929 15.4231 14.952 15.3154 14.7525 15.4122Z" stroke="url(#paint0_linear_97_8018)" stroke-width="2" mask="url(#path-1-inside-1_97_8018)"/>
<mask id="path-2-inside-2_97_8018" fill="white">
<path d="M12.4981 6.62721C13.083 6.41193 13.7702 6.75461 13.9959 7.31881C14.239 7.87001 13.9739 8.57877 13.4258 8.83721C12.9349 9.10189 12.2739 8.96929 11.9201 8.54289C11.6219 8.19969 11.5526 7.68385 11.7453 7.27461C11.886 6.96313 12.1705 6.72653 12.4981 6.62721ZM12.6519 7.23561C12.4824 7.29385 12.3422 7.43113 12.2907 7.60221C12.1836 7.91889 12.4115 8.28549 12.7428 8.33801C13.084 8.41861 13.4552 8.14041 13.4557 7.78993C13.482 7.39473 13.0221 7.05881 12.6519 7.23561Z"/>
</mask>
<path d="M12.4981 6.62721L12.7882 7.58419L12.8162 7.57573L12.8435 7.56565L12.4981 6.62721ZM13.9959 7.31881L13.0675 7.6903L13.0739 7.70642L13.081 7.72231L13.9959 7.31881ZM13.4258 8.83721L12.9993 7.93271L12.9749 7.94421L12.9512 7.95701L13.4258 8.83721ZM11.9201 8.54289L12.6896 7.90428L12.6824 7.89556L12.6749 7.887L11.9201 8.54289ZM11.7453 7.27461L12.65 7.70057L12.6534 7.69345L12.6566 7.68627L11.7453 7.27461ZM12.6519 7.23561L12.9768 8.18138L13.0311 8.16272L13.083 8.13795L12.6519 7.23561ZM12.2907 7.60221L13.238 7.92258L13.2435 7.90648L13.2484 7.8902L12.2907 7.60221ZM12.7428 8.33801L12.9726 7.36479L12.9363 7.3562L12.8993 7.35034L12.7428 8.33801ZM13.4557 7.78993L12.4579 7.72365L12.4558 7.756L12.4557 7.78843L13.4557 7.78993ZM12.8435 7.56565C12.8496 7.56343 12.8881 7.55342 12.9539 7.58456C13.0223 7.61696 13.0575 7.66541 13.0675 7.6903L14.9244 6.94732C14.5138 5.92126 13.2859 5.27164 12.1527 5.68876L12.8435 7.56565ZM13.081 7.72231C13.084 7.72922 13.0959 7.77088 13.0712 7.83664C13.0467 7.90217 13.0096 7.92787 12.9993 7.93271L13.8523 9.7417C14.8887 9.25301 15.3739 7.96518 14.9109 6.91531L13.081 7.72231ZM12.9512 7.95701C12.9318 7.96746 12.8837 7.98163 12.8149 7.96807C12.7457 7.95443 12.7046 7.92236 12.6896 7.90428L11.1505 9.18149C11.8056 9.97084 12.986 10.2104 13.9004 9.71741L12.9512 7.95701ZM12.6749 7.887C12.6384 7.8449 12.625 7.75376 12.65 7.70057L10.8405 6.84865C10.4802 7.61393 10.6054 8.55448 11.1652 9.19877L12.6749 7.887ZM12.6566 7.68627C12.6698 7.65696 12.7157 7.60618 12.7882 7.58419L12.208 5.67022C11.6253 5.84687 11.1021 6.2693 10.8339 6.86294L12.6566 7.68627ZM12.3271 6.28983C11.8773 6.44433 11.4844 6.81099 11.3331 7.31421L13.2484 7.8902C13.1999 8.05127 13.0874 8.14337 12.9768 8.18138L12.3271 6.28983ZM11.3434 7.28184C11.032 8.20269 11.6613 9.17905 12.5862 9.32567L12.8993 7.35034C13.0584 7.37557 13.1562 7.46755 13.2035 7.54424C13.2511 7.62141 13.2934 7.75873 13.238 7.92258L11.3434 7.28184ZM12.5129 9.31123C13.0164 9.43014 13.4958 9.27806 13.8332 9.02095C14.1716 8.76299 14.4549 8.33049 14.4557 7.79143L12.4557 7.78843C12.456 7.59984 12.5534 7.48168 12.6208 7.43029C12.6871 7.37975 12.8104 7.32647 12.9726 7.36479L12.5129 9.31123ZM14.4535 7.8562C14.4943 7.24213 14.1605 6.74995 13.7784 6.48076C13.391 6.20786 12.7993 6.05697 12.2209 6.33327L13.083 8.13795C12.8747 8.23744 12.698 8.16612 12.6265 8.11577C12.5604 8.06915 12.4434 7.94253 12.4579 7.72365L14.4535 7.8562Z" fill="url(#paint1_linear_97_8018)" mask="url(#path-2-inside-2_97_8018)"/>
<path d="M11.1278 8.07628C11.1213 8.07813 11.1149 8.07965 11.1087 8.08086C11.0345 8.0954 10.9794 8.06689 10.9534 8.04637C10.9501 8.04376 10.9472 8.04128 10.9449 8.03903C10.9441 8.03832 10.9434 8.03756 10.9426 8.03675C10.9197 8.01329 10.8758 7.94653 10.8946 7.85415C10.8958 7.84814 10.8973 7.84202 10.8991 7.83579C10.9016 7.82915 10.9042 7.82284 10.9071 7.81686C10.9337 7.76145 10.9761 7.73378 11.0059 7.72203C11.0092 7.72074 11.0123 7.71964 11.0152 7.71871C11.0158 7.71853 11.0164 7.71835 11.017 7.71818C11.0462 7.70948 11.1038 7.70482 11.1629 7.73695C11.1711 7.74144 11.1794 7.74665 11.1877 7.75267C11.195 7.75953 11.2016 7.76659 11.2075 7.77378C11.2572 7.8342 11.2599 7.90353 11.2532 7.93769C11.2527 7.94003 11.2521 7.9425 11.2515 7.94508C11.2507 7.94822 11.2497 7.95152 11.2485 7.95497C11.2369 7.98999 11.2074 8.03899 11.1463 8.06837C11.1404 8.0712 11.1342 8.07384 11.1278 8.07628Z" stroke="url(#paint2_linear_97_8018)"/>
<path d="M14.6611 8.06644C14.6558 8.06825 14.6505 8.06982 14.6453 8.07116C14.5684 8.09103 14.509 8.06182 14.4836 8.04151C14.4778 8.03682 14.4709 8.03027 14.4638 8.02193C14.4607 8.01835 14.4576 8.01444 14.4545 8.01021C14.4336 7.98142 14.4138 7.93774 14.4156 7.88135C14.4158 7.87432 14.4163 7.8671 14.4173 7.85968C14.4187 7.85262 14.4205 7.84586 14.4224 7.83938C14.4438 7.7689 14.4921 7.73218 14.5241 7.71618C14.5267 7.71489 14.5292 7.71374 14.5316 7.71271C14.5367 7.71048 14.5412 7.70885 14.5449 7.70775C14.5696 7.70037 14.6389 7.69264 14.7057 7.74075C14.7131 7.74608 14.7205 7.7521 14.7277 7.75887C14.7344 7.76672 14.7403 7.77469 14.7455 7.78271C14.7762 7.83024 14.7823 7.87952 14.7794 7.91473C14.7791 7.91869 14.7786 7.92246 14.7781 7.92604C14.7774 7.93079 14.7765 7.93519 14.7756 7.93919C14.7673 7.97344 14.7401 8.0269 14.6761 8.05948C14.6713 8.06192 14.6663 8.06425 14.6611 8.06644Z" stroke="url(#paint3_linear_97_8018)"/>
<defs>
<linearGradient id="paint0_linear_97_8018" x1="25.9879" y1="16.8436" x2="0.0666098" y2="16.8195" gradientUnits="userSpaceOnUse">
<stop stop-color="#D1589E"/>
<stop offset="1" stop-color="#BF68E1"/>
</linearGradient>
<linearGradient id="paint1_linear_97_8018" x1="14.0865" y1="7.58242" x2="11.6372" y2="7.57899" gradientUnits="userSpaceOnUse">
<stop stop-color="#D1589E"/>
<stop offset="1" stop-color="#BF68E1"/>
</linearGradient>
<linearGradient id="paint2_linear_97_8018" x1="11.3908" y1="7.84959" x2="10.7563" y2="7.84871" gradientUnits="userSpaceOnUse">
<stop stop-color="#D1589E"/>
<stop offset="1" stop-color="#BF68E1"/>
</linearGradient>
<linearGradient id="paint3_linear_97_8018" x1="14.9159" y1="7.84151" x2="14.2803" y2="7.84062" gradientUnits="userSpaceOnUse">
<stop stop-color="#D1589E"/>
<stop offset="1" stop-color="#BF68E1"/>
</linearGradient>
</defs>
</svg>
