<svg width="45" height="42" viewBox="0 0 45 42" fill="none" xmlns="http://www.w3.org/2000/svg">
<path d="M19.0554 11.9737C19.4756 11.2692 19.5272 10.3631 19.1205 9.58624C18.4919 8.38569 17.0103 7.92243 15.8098 8.55102C14.6092 9.17962 14.146 10.6611 14.7746 11.8617C15.1841 12.644 15.9554 13.1123 16.7738 13.1683L16.9206 21.0236C16.9439 22.2711 15.8098 23.2249 14.5848 22.9872L7.71658 21.6482C7.79763 21.142 7.72452 20.6058 7.46853 20.1169C6.83994 18.9163 5.35841 18.4531 4.15785 19.0817C2.9573 19.7103 2.49404 21.1918 3.12263 22.3923C3.75123 23.5929 5.23276 24.0562 6.43331 23.4276C6.44418 23.4219 6.46047 23.4133 6.47134 23.4077L16.1046 35.7648C17.268 37.2598 19.339 37.712 21.0231 36.8303L36.0816 28.9458C37.7602 28.0669 38.5712 26.1126 38.0079 24.2965L33.3399 9.33963C33.3507 9.33394 33.367 9.32541 33.3779 9.31972C34.5784 8.69112 35.0417 7.20959 34.4131 6.00904C33.7845 4.80848 32.303 4.34522 31.1024 4.97382C29.9019 5.60242 29.4386 7.08394 30.0672 8.2845C30.3232 8.77341 30.7223 9.13897 31.1844 9.36072L28.3722 15.7683C27.8697 16.9105 26.4397 17.2992 25.4277 16.5694L19.0554 11.9737Z" fill="#FFC24D"/>
</svg>
