<svg width="25" height="19" viewBox="0 0 25 19" fill="none" xmlns="http://www.w3.org/2000/svg">
<path d="M13.2404 3.28972C13.7195 3.00628 14.0443 2.48313 14.0541 1.88822C14.0691 0.96883 13.3367 0.211955 12.4173 0.196885C11.4979 0.181814 10.741 0.914275 10.7259 1.83367C10.7161 2.43273 11.0237 2.96209 11.4932 3.26108L9.03127 7.98954C8.64028 8.74048 7.65494 8.94072 7.00213 8.40154L3.34406 5.37458C3.55664 5.09926 3.6871 4.75602 3.69324 4.3816C3.70831 3.46221 2.97585 2.70534 2.05645 2.69026C1.13706 2.67519 0.380185 3.40765 0.365114 4.32705C0.350043 5.24644 1.0825 6.00332 2.0019 6.01839C2.01022 6.01852 2.0227 6.01873 2.03102 6.01887L3.76077 16.5087C3.96885 17.7771 5.05615 18.7187 6.3458 18.7399L17.8777 18.9289C19.1632 18.95 20.2807 18.0486 20.5345 16.7836L22.6071 6.35615C22.6155 6.35629 22.6279 6.35649 22.6363 6.35663C23.5557 6.3717 24.3125 5.63924 24.3276 4.71984C24.3427 3.80045 23.6102 3.04357 22.6908 3.0285C21.7714 3.01343 21.0146 3.74589 20.9995 4.66529C20.9933 5.0397 21.1125 5.38704 21.3159 5.66918L17.5606 8.57461C16.8905 9.09211 15.9122 8.85969 15.5461 8.09633L13.2404 3.28972Z" fill="url(#paint0_linear_51_4850)"/>
<defs>
<linearGradient id="paint0_linear_51_4850" x1="24.2693" y1="8.27838" x2="0.306708" y2="7.843" gradientUnits="userSpaceOnUse">
<stop stop-color="#D1589E"/>
<stop offset="1" stop-color="#BF68E1"/>
</linearGradient>
</defs>
</svg>
