<svg width="13" height="13" viewBox="0 0 13 13" fill="none" xmlns="http://www.w3.org/2000/svg">
<path fill-rule="evenodd" clip-rule="evenodd" d="M8.84007 4.92003C8.84007 7.08501 7.08501 8.84007 4.92003 8.84007C2.75506 8.84007 1 7.08501 1 4.92003C1 2.75506 2.75506 1 4.92003 1C7.08501 1 8.84007 2.75506 8.84007 4.92003ZM8.02757 8.73467C7.18034 9.42568 6.09858 9.84007 4.92003 9.84007C2.20277 9.84007 0 7.63729 0 4.92003C0 2.20277 2.20277 0 4.92003 0C7.63729 0 9.84007 2.20277 9.84007 4.92003C9.84007 6.09858 9.42568 7.18034 8.73467 8.02757L12.0859 11.3788L11.3788 12.0859L8.02757 8.73467Z" fill="white"/>
</svg>
